<svg xmlns="http://www.w3.org/2000/svg" width="24" height="18.19" viewBox="0 0 24 18.19"><defs><style>.a{fill:#2c2c2c;}</style></defs><path class="a" d="M24,1.75A1.75,1.75,0,0,1,22.25,3.5H1.75A1.75,1.75,0,0,1,0,1.75H0A1.75,1.75,0,0,1,1.75,0h20.5A1.75,1.75,0,0,1,24,1.75Z"/><path class="a" d="M21.1,9.09a1.75,1.75,0,0,1-1.75,1.75H4.65A1.75,1.75,0,0,1,2.9,9.09h0A1.75,1.75,0,0,1,4.65,7.35h14.7A1.75,1.75,0,0,1,21.1,9.09Z"/><path class="a" d="M16.74,16.44A1.75,1.75,0,0,1,15,18.19H9a1.75,1.75,0,0,1-1.75-1.75h0A1.75,1.75,0,0,1,9,14.69h6a1.75,1.75,0,0,1,1.75,1.75Z"/></svg>