<svg width="48" height="48" viewBox="0 0 48 48" fill="none" xmlns="http://www.w3.org/2000/svg">
<circle cx="24" cy="24" r="24" fill="#2962FF"/>
<path fill-rule="evenodd" clip-rule="evenodd" d="M34.8509 17.3592C33.9538 16.3367 33.4503 15.0044 32.1081 14.334C31.413 13.984 30.645 13.7553 29.9031 13.4833C29.5061 13.338 29.0967 13.2188 28.6949 13.0835C28.3562 12.9688 28.0677 12.932 27.7936 13.2418C27.0195 14.1221 26.0197 14.7644 24.8276 15.0367C24.5432 15.1016 24.244 15.1411 23.9394 15.158C23.6407 15.1426 23.3438 15.1021 23.0519 15.0367C21.8605 14.7644 20.86 14.1221 20.0865 13.2418C19.8104 12.9317 19.5219 12.9688 19.1839 13.0835C18.7824 13.2192 18.3737 13.338 17.9764 13.4833C17.2352 13.7553 16.4655 13.984 15.769 14.334C14.4281 15.0044 13.9246 16.337 13.0286 17.3592C12.943 17.455 13.0416 17.7401 13.1398 17.8925C13.2267 18.0213 13.4338 18.0859 13.5898 18.1786C14.5215 18.7275 15.5931 19.0771 16.391 19.8245C16.619 20.0367 16.9917 20.1174 17.2589 20.3057C17.4062 20.4101 17.5398 20.6017 17.5628 20.769C17.6762 21.5603 17.7929 22.3537 17.8256 23.1501C17.8987 24.9856 18.1185 26.8241 17.6205 28.6454C17.3588 29.6043 17.1016 30.5684 16.913 31.5421C16.7176 32.5405 16.6091 33.5537 16.4686 34.5223C16.8581 34.6648 17.0944 34.8114 17.3413 34.829C18.4888 34.9093 19.639 35 20.7896 35C21.8399 34.9993 22.8898 34.9818 23.9401 34.9605C24.9904 34.9821 26.041 34.9993 27.0903 35C28.2408 35 29.3907 34.9093 30.5385 34.829C30.7865 34.8114 31.0221 34.6648 31.4116 34.5223C31.2704 33.5541 31.1616 32.5405 30.9679 31.5421C30.7786 30.5684 30.5203 29.6043 30.2593 28.6454C29.7613 26.8234 29.9818 24.9849 30.0556 23.1501C30.0876 22.3537 30.2057 21.5603 30.3177 20.769C30.3407 20.6021 30.4736 20.4101 30.6217 20.3057C30.8878 20.1171 31.2622 20.0364 31.4889 19.8245C32.2871 19.0768 33.3586 18.7271 34.2897 18.1786C34.4457 18.0859 34.6545 18.0213 34.7393 17.8925C34.8386 17.7401 34.9372 17.455 34.8523 17.3592" fill="white"/>
<path fill-rule="evenodd" clip-rule="evenodd" d="M24.0144 31.1609C23.8598 29.956 23.933 28.743 23.7341 27.5388L23.7122 27.4079C23.684 27.2633 23.6535 27.1192 23.6208 26.9755C23.5531 26.674 24.0213 26.4394 23.9385 26.1406C23.8097 25.6704 23.7091 25.2857 23.6191 24.8066C23.5002 24.1675 23.4961 23.6416 23.7142 22.9997C23.9632 22.2675 23.6002 21.4171 24.1411 20.8263C24.295 20.6594 24.4736 20.5231 24.6515 20.3771C24.6558 20.3731 24.6604 20.3695 24.6652 20.3661C24.6561 20.2775 24.6443 20.1892 24.6299 20.1013C24.5948 19.8928 24.5512 19.6861 24.5261 19.4769C24.3805 18.2339 24.0965 16.9934 24.3383 15.7422C24.3812 15.5229 24.4408 15.3071 24.5165 15.0968C24.328 15.1267 24.1343 15.147 23.9385 15.158C23.6398 15.1426 23.3429 15.1021 23.051 15.0367C21.8596 14.7644 20.8591 14.1221 20.0856 13.2418C19.8095 12.9317 19.521 12.9688 19.183 13.0835C18.7815 13.2192 18.3728 13.338 17.9754 13.4833C17.2343 13.7553 16.4646 13.984 15.7681 14.334C14.4272 15.0044 13.9237 16.337 13.0276 17.3592C12.9421 17.455 13.0407 17.7401 13.1389 17.8925C13.2258 18.0213 13.4329 18.0859 13.5888 18.1786C14.5206 18.7275 15.5922 19.0771 16.3901 19.8245C16.6181 20.0367 16.9908 20.1174 17.258 20.3057C17.4053 20.4101 17.5389 20.6017 17.5619 20.769C17.6753 21.5603 17.792 22.3537 17.8247 23.1501C17.8978 24.9856 18.1176 26.8241 17.6196 28.6454C17.3579 29.6043 17.1007 30.5684 16.9121 31.5421C16.7167 32.5405 16.6081 33.5537 16.4677 34.5223C16.8572 34.6648 17.0934 34.8114 17.3404 34.829C18.4879 34.9093 19.6381 35 20.7887 35C21.839 34.9993 22.8889 34.9818 23.9392 34.9605C24.4726 34.9722 25.0056 34.9808 25.5386 34.9883C24.7573 33.7849 24.1858 32.476 24.0154 31.1602" fill="white"/>
<path fill-rule="evenodd" clip-rule="evenodd" d="M13.7303 16.3924C13.9917 16.0723 14.2245 15.7282 14.4598 15.3875C14.1984 15.7076 13.9649 16.051 13.7303 16.3924Z" fill="white"/>
<path fill-rule="evenodd" clip-rule="evenodd" d="M17.2583 20.2676C17.4056 20.372 17.5392 20.564 17.5622 20.7309L17.6004 20.9957C17.6234 20.9253 17.6478 20.8552 17.6708 20.7841C17.7705 20.4843 17.9313 20.2085 18.143 19.9739C18.1414 19.9656 18.1412 19.9571 18.1427 19.9488C18.1197 19.7826 17.9861 19.5892 17.8387 19.4855C17.5722 19.297 17.1982 19.2169 16.9708 19.005C16.1737 18.2573 15.1021 17.907 14.1696 17.3575C14.0144 17.2654 13.8066 17.2015 13.7204 17.0721C13.6397 16.9484 13.5603 16.7341 13.582 16.6074C13.411 16.8548 13.2271 17.093 13.0311 17.3211C12.9455 17.4169 13.0441 17.7023 13.1423 17.8538C13.2292 17.9829 13.4363 18.0478 13.5923 18.1388C14.5241 18.6883 15.5956 19.0373 16.3935 19.7871C16.6219 19.9997 16.9942 20.0804 17.2614 20.2676" fill="white"/>
<path fill-rule="evenodd" clip-rule="evenodd" d="M34.1493 16.4126C33.8856 16.0925 33.6537 15.7498 33.4178 15.4084C33.6795 15.7275 33.9127 16.0713 34.1493 16.4126Z" fill="white"/>
<path fill-rule="evenodd" clip-rule="evenodd" d="M30.619 20.2915C30.471 20.3959 30.3384 20.5875 30.3151 20.7548C30.3027 20.8431 30.29 20.9306 30.2769 21.0182C30.2543 20.9485 30.2296 20.8791 30.2083 20.8077C30.1075 20.5079 29.946 20.2321 29.7339 19.9975C29.7353 19.9892 29.7343 19.9806 29.7381 19.9724C29.76 19.8055 29.8947 19.6138 30.0427 19.5091C30.3082 19.3209 30.6819 19.2422 30.9099 19.0279C31.7074 18.2795 32.7783 17.9306 33.7111 17.3817C33.866 17.2893 34.0742 17.2258 34.1597 17.096C34.2425 16.9723 34.3197 16.758 34.3002 16.632C34.4706 16.8789 34.654 17.1165 34.8497 17.3439C34.9345 17.4401 34.8363 17.7252 34.737 17.8773C34.6522 18.0065 34.4437 18.0714 34.2875 18.1624C33.3564 18.7126 32.2848 19.0616 31.4866 19.8099C31.2596 20.0236 30.8855 20.1029 30.619 20.2915Z" fill="white"/>
<path fill-rule="evenodd" clip-rule="evenodd" d="M19.365 13.5166C20.2851 14.7049 21.47 15.5732 22.8847 15.9414C23.2227 16.0297 23.5785 16.0819 23.9391 16.1049C24.2949 16.0842 24.6478 16.0294 24.9932 15.9414C26.4075 15.5722 27.5941 14.7039 28.5129 13.5166C28.6774 13.3023 28.8481 13.2113 29.0267 13.192C28.9161 13.1563 28.8055 13.1209 28.6942 13.0835C28.3556 12.9688 28.0671 12.932 27.793 13.2418C27.0189 14.1221 26.0191 14.7644 24.8269 15.0367C24.5426 15.1016 24.2434 15.1411 23.9388 15.158C23.64 15.1426 23.3432 15.1021 23.0513 15.0367C21.8598 14.7644 20.8593 14.1221 20.0859 13.2418C19.8098 12.9317 19.5213 12.9688 19.1833 13.0835C19.0727 13.1209 18.9618 13.1563 18.8508 13.192C19.0318 13.2116 19.2001 13.3026 19.365 13.5166Z" fill="white"/>
<path fill-rule="evenodd" clip-rule="evenodd" d="M30.5366 33.7206C29.3891 33.7996 28.2392 33.8917 27.0883 33.8903C26.0381 33.8881 24.988 33.8756 23.9381 33.8529C22.8878 33.8745 21.8379 33.8896 20.7876 33.8903C19.6381 33.8917 18.4878 33.7996 17.3393 33.7206C17.1247 33.7052 16.9172 33.5905 16.6098 33.4689C16.5646 33.8202 16.5169 34.1712 16.4666 34.5219C16.8561 34.6644 17.0924 34.8111 17.3393 34.8286C18.4868 34.909 19.637 34.9996 20.7876 34.9996C21.8379 34.999 22.8878 34.9814 23.9381 34.9601C24.9884 34.9818 26.039 34.999 27.0883 34.9996C28.2388 34.9996 29.3887 34.909 30.5366 34.8286C30.7845 34.8111 31.0201 34.6644 31.4096 34.5219C31.3588 34.175 31.3128 33.8237 31.2657 33.4689C30.9587 33.5905 30.7522 33.7052 30.5366 33.7206Z" fill="white"/>
</svg>
