<svg width="48" height="48" viewBox="0 0 48 48" fill="none" xmlns="http://www.w3.org/2000/svg">
<circle cx="24" cy="24" r="24" fill="#D50000"/>
<path d="M33.9375 14.183C33.3438 14.317 32.8385 14.6451 32.4219 15.1674C32.0052 15.6897 31.7969 16.2589 31.7969 16.875C31.7969 17.4018 31.8203 18.2188 31.8672 19.3259C31.9141 20.433 31.9375 21.2411 31.9375 21.75C31.9375 22.3929 31.8698 22.9464 31.7344 23.4107C31.599 23.875 31.4245 24.25 31.2109 24.5357C30.9974 24.8214 30.7083 25.058 30.3438 25.2455C29.9792 25.433 29.6172 25.5692 29.2578 25.654C28.8984 25.7388 28.4531 25.817 27.9219 25.8884C28.3698 25.2188 28.5938 24.4955 28.5938 23.7188C28.5938 22.942 28.4115 22.1406 28.0469 21.3147C27.6823 20.4888 27.2526 19.7366 26.7578 19.058C26.263 18.3795 25.7448 17.8036 25.2031 17.3304C26.2344 16.2679 27.4115 15.471 28.7344 14.9397C30.0573 14.4085 31.7917 14.1562 33.9375 14.183ZM25 26.5714C26.6146 26.2411 27.4271 25.3482 27.4375 23.8929C27.4479 23.2768 27.3125 22.6161 27.0312 21.9107C26.75 21.2054 26.3516 20.5 25.8359 19.7946C25.3203 19.0893 24.6667 18.4129 23.875 17.7656C23.0833 17.1183 22.2135 16.5469 21.2656 16.0513C20.3177 15.5558 19.2318 15.1652 18.0078 14.8795C16.7839 14.5938 15.5208 14.4598 14.2188 14.4777C14.8021 14.6116 15.3047 14.9888 15.7266 15.6094C16.1484 16.2299 16.3594 16.8571 16.3594 17.4911C16.3594 18.0268 16.3359 18.7946 16.2891 19.7946C16.2422 20.7946 16.2188 21.5446 16.2188 22.0446C16.2188 22.6429 16.349 23.1942 16.6094 23.6987C16.8698 24.2031 17.2214 24.6295 17.6641 24.9777C18.1068 25.3259 18.6198 25.6205 19.2031 25.8616C19.7865 26.1027 20.3984 26.2813 21.0391 26.3973C21.6797 26.5134 22.3333 26.5714 23 26.5714V30C22.6771 29.6607 22.138 29.317 21.3828 28.9688C20.6276 28.6205 19.8177 28.3259 18.9531 28.0848C17.724 27.7277 16.4193 27.5647 15.0391 27.596C13.6589 27.6272 12.6458 27.8571 12 28.2857C13.4896 29.9464 15.2552 31.0179 17.2969 31.5C19.3385 31.9821 21.2396 31.7679 23 30.8571V35.5446C23 35.6696 23.0417 35.7768 23.125 35.8661C23.2083 35.9554 23.3229 36 23.4688 36H24.5312C24.6771 36 24.7917 35.9554 24.875 35.8661C24.9583 35.7768 25 35.6696 25 35.5446V33.4286C25.9375 33.7946 26.9193 33.9888 27.9453 34.0112C28.9714 34.0335 29.9661 33.8973 30.9297 33.6027C31.8932 33.308 32.8177 32.8527 33.7031 32.2366C34.5885 31.6205 35.3542 30.875 36 30C35.5 29.7411 34.8516 29.5357 34.0547 29.3839C33.2578 29.2321 32.3698 29.1763 31.3906 29.2165C30.4115 29.2567 29.5312 29.4196 28.75 29.7054C28.0938 29.9464 27.4167 30.3326 26.7188 30.8638C26.0208 31.3951 25.4479 31.9063 25 32.3973V26.5714ZM30.1875 13.2991C30.1875 13.5045 29.9297 13.7277 29.4141 13.9688C28.8984 14.2098 28.276 14.4464 27.5469 14.6786C26.8177 14.9107 26.4167 15.0446 26.3438 15.0804C26.375 14.8661 26.2682 14.6696 26.0234 14.4911C25.7786 14.3125 25.5 14.1808 25.1875 14.096C24.875 14.0112 24.5807 13.9308 24.3047 13.8549C24.0286 13.779 23.8854 13.7232 23.875 13.6875C23.8229 13.5804 24.0911 13.5112 24.6797 13.4799C25.2682 13.4487 25.8594 13.4219 26.4531 13.3996C27.0469 13.3772 27.3281 13.3214 27.2969 13.2321C27.276 13.1786 27.2109 13.1317 27.1016 13.0915C26.9922 13.0513 26.8464 13.0179 26.6641 12.9911C26.4818 12.9643 26.2891 12.942 26.0859 12.9241C25.8828 12.9063 25.6641 12.8929 25.4297 12.8839C25.1953 12.875 24.9922 12.8683 24.8203 12.8638L24.3047 12.8504L24 12.8438C23.5938 12.8259 22.9427 12.8527 22.0469 12.9241C21.151 12.9955 20.724 13.1071 20.7656 13.2589C20.7969 13.3839 21.0625 13.5179 21.5625 13.6607C22.0625 13.8036 22.6016 13.9353 23.1797 14.0558C23.7578 14.1763 24.2865 14.3482 24.7656 14.5714C25.2448 14.7946 25.4844 15.0491 25.4844 15.3348C25.4844 15.433 25.474 15.5156 25.4531 15.5826C25.4323 15.6496 25.3802 15.7254 25.2969 15.8103C25.2135 15.8951 25.1406 15.9665 25.0781 16.0246C25.0156 16.0826 24.8906 16.1808 24.7031 16.3192C24.5156 16.4576 24.3594 16.5804 24.2344 16.6875C23.7656 16.2679 23.2396 15.9152 22.6562 15.6295C22.0729 15.3438 21.3073 15.1295 20.3594 14.9866C19.651 14.8705 19.0677 14.6741 18.6094 14.3973C18.151 14.1205 17.9219 13.8125 17.9219 13.4732C17.9219 13.2411 18.0391 13.0379 18.2734 12.8638C18.5078 12.6897 18.8333 12.5513 19.25 12.4487C19.6667 12.346 20.0833 12.2612 20.5 12.1942C20.9167 12.1272 21.388 12.0826 21.9141 12.0603C22.4401 12.0379 22.8411 12.0223 23.1172 12.0134C23.3932 12.0045 23.6875 12 24 12C28.125 12 30.1875 12.433 30.1875 13.2991Z" fill="white"/>
</svg>
