<svg width="48" height="48" viewBox="0 0 48 48" fill="none" xmlns="http://www.w3.org/2000/svg">
<circle cx="24" cy="24" r="24" fill="#6200EA"/>
<path fill-rule="evenodd" clip-rule="evenodd" d="M24 17.1429C22.5771 17.1429 21.4286 15.9943 21.4286 14.5714C21.4286 13.1486 22.5771 12 24 12C25.4229 12 26.5714 13.1486 26.5714 14.5714C26.5714 15.9943 25.4229 17.1429 24 17.1429ZM36 27.4286C36 29.3314 34.4743 30.8571 32.5714 30.8571H30.8571C28.9543 30.8571 27.4286 29.3314 27.4286 27.4286L30.8571 20.5714H29.1429C28.2 20.5714 27.4286 19.8 27.4286 18.8571H25.7143V32.5714C26.4343 32.5714 27.4286 33.3429 27.4286 34.2857H29.1429C29.8629 34.2857 30.8571 35.0571 30.8571 36H17.1429C17.1429 35.0571 18.1371 34.2857 18.8571 34.2857H20.5714C20.5714 33.3429 21.5657 32.5714 22.2857 32.5714H22.3371L22.2857 18.8571H20.5714C20.5714 19.8 19.8 20.5714 18.8571 20.5714H17.1429L20.5714 27.4286C20.5714 29.3314 19.0457 30.8571 17.1429 30.8571H15.4286C13.5257 30.8571 12 29.3314 12 27.4286L15.4286 20.5714H13.7143V18.8571H18.8571C18.8571 17.9143 19.6286 17.1429 20.5714 17.1429H27.4286C28.3714 17.1429 29.1429 17.9143 29.1429 18.8571H34.2857V20.5714H32.5714L36 27.4286ZM16.2857 22.2857L13.7143 27.4286H18.8571L16.2857 22.2857ZM34.2857 27.4286L31.7143 22.2857L29.1429 27.4286H34.2857Z" fill="white"/>
</svg>
