<?xml version="1.0" encoding="utf-8"?>
<!-- Generator: Adobe Illustrator 24.1.1, SVG Export Plug-In . SVG Version: 6.00 Build 0)  -->
<svg version="1.1" id="Layer_1" xmlns="http://www.w3.org/2000/svg" xmlns:xlink="http://www.w3.org/1999/xlink" x="0px" y="0px"
	 width="24px" height="24px" viewBox="0 0 24 24" style="enable-background:new 0 0 24 24;" xml:space="preserve">
<style type="text/css">
	.st0{fill:#FFFFFF;}
</style>
<path class="st0" d="M20.6,10.3C20.6,4.6,16,0,10.3,0.1S0,4.7,0,10.4s4.6,10.3,10.3,10.3c2.3,0,4.5-0.8,6.3-2.1l5.5,5.5l1.9-1.9
	l-5.5-5.5C19.9,14.8,20.6,12.6,20.6,10.3z M10.3,18c-4.2,0-7.6-3.5-7.6-7.7c0-4.2,3.5-7.6,7.7-7.6c4.2,0,7.5,3.4,7.6,7.6l0,0
	C18,14.5,14.6,18,10.3,18C10.4,18,10.4,18,10.3,18z"/>
</svg>
