<svg width="48" height="48" viewBox="0 0 48 48" fill="none" xmlns="http://www.w3.org/2000/svg">
<circle cx="24" cy="24" r="24" fill="#00C853"/>
<path fill-rule="evenodd" clip-rule="evenodd" d="M24.8792 16.6936C25.204 15.6176 26.0958 14.1056 28.5074 14.1056V13.084C25.82 13.084 24.5228 14.4752 23.9753 15.8976C24.101 14.89 24.1797 13.6876 23.9352 13.1604C23.4786 12.174 22.2746 11.7304 21.2462 12.1692C20.2194 12.608 19.7567 13.7632 20.2142 14.7496C20.4198 15.1936 21.1505 15.7952 21.8918 16.324C18.1505 14.7512 12 15.8276 12 22.9268C12 28.2988 18.3995 35.9999 21.1923 35.9999C22.4595 35.9999 22.9157 35.2179 23.6509 35.2179C24.3987 35.2179 24.6396 35.9983 26.2608 35.9983C29.0557 35.9983 35.52 28.3236 35.52 22.9268C35.52 15.3292 28.4762 14.6296 24.8792 16.6936Z" fill="white"/>
</svg>
