<svg width="48" height="48" viewBox="0 0 48 48" fill="none" xmlns="http://www.w3.org/2000/svg">
<circle cx="24" cy="24" r="24" fill="#00BFA5"/>
<path d="M25.55 29.7895V31.8947H29.75V34H19.25V31.8947H23.45V29.7895H15.0416C14.9038 29.7886 14.7674 29.7606 14.6404 29.7068C14.5133 29.653 14.3981 29.5747 14.3014 29.4762C14.2046 29.3777 14.1282 29.2611 14.0765 29.1329C14.0248 29.0048 13.9988 28.8677 14 28.7295V15.06C14 14.4747 14.4778 14 15.0416 14H33.9584C34.5338 14 35 14.4726 35 15.06V28.7295C35 29.3147 34.5223 29.7895 33.9584 29.7895H25.55Z" fill="white"/>
</svg>
