<svg width="48" height="48" viewBox="0 0 48 48" fill="none" xmlns="http://www.w3.org/2000/svg">
<circle cx="24" cy="24" r="24" fill="#C51162"/>
<path d="M29.5111 14.832H26.0356C25.4076 14.834 25.4311 15.77 26.0356 15.7645H29.5111V16.243H26.0356C25.4111 16.2375 25.4341 17.173 26.0356 17.1755H29.5111V17.6645H26.0356C25.4111 17.6645 25.4341 18.5995 26.0356 18.597H29.5111V19.063H26.0356C25.4241 19.0675 25.4341 20.0036 26.0356 20.0066H29.5111V20.4736H26.0356C25.4241 20.4716 25.4216 21.4061 26.0356 21.4061H29.5111V21.8721H26.0356C25.4241 21.8741 25.4216 22.8096 26.0356 22.8051H29.5111V23.2826H26.0356C25.4241 23.2771 25.4216 24.2116 26.0356 24.2151H29.5111V24.6801H26.0356C25.4241 24.6796 25.4341 25.6161 26.0356 25.6131H29.5111V34.6927C29.5131 36.0762 31.6146 36.0512 31.6206 34.6927V13.445C31.6146 12.813 31.0956 12.014 30.2416 12.0115H26.0356C25.4076 12.012 25.4311 12.948 26.0356 12.944L29.5111 12.9555V13.4205H26.0356C25.4086 13.4175 25.4321 14.353 26.0356 14.3535H29.5111V14.832ZM25.7966 30.9291C25.7946 29.3141 24.1206 27.5771 22.1205 28.7021V22.5251L20.827 12.3375C20.8 12.068 20.5715 12.0045 20.418 12C20.2595 12.0045 19.942 12.068 19.9075 12.3375L18.6205 22.5251V28.7021C16.6205 27.5771 15.0005 29.3251 15 30.9166C15.0005 32.3326 16.0905 33.4956 17.5655 33.4921C19.0515 33.4956 20.1205 32.1921 20.1205 30.9166V24.5001H20.6205V30.9166C20.6205 32.3446 21.7265 33.4016 22.9556 33.4686C22.9351 34.2517 23.1906 35.3687 23.6716 35.8117C24.2356 36.3317 24.9071 35.6667 24.6316 35.1252C24.3656 34.6212 24.1046 34.3227 24.3166 33.2221C25.2026 32.8121 25.7946 31.9491 25.7966 30.9291ZM17.6225 32.1996C17.2854 32.1996 16.962 32.0657 16.7236 31.8273C16.4852 31.5889 16.3513 31.2655 16.3513 30.9284C16.3513 30.5912 16.4852 30.2679 16.7236 30.0295C16.962 29.7911 17.2854 29.6571 17.6225 29.6571C18.3155 29.6611 18.88 30.2296 18.885 30.9291C18.8836 31.2643 18.7504 31.5854 18.5141 31.8231C18.2779 32.0609 17.9576 32.1961 17.6225 32.1996ZM21.908 30.9291C21.9092 30.5937 22.0424 30.2722 22.2787 30.0341C22.5151 29.7961 22.8356 29.6607 23.1711 29.6571C23.5066 29.6602 23.8274 29.7954 24.0638 30.0336C24.3002 30.2718 24.4331 30.5936 24.4336 30.9291C24.433 31.2645 24.3001 31.5862 24.0637 31.8241C23.8273 32.062 23.5065 32.197 23.1711 32.1996C22.8357 32.1966 22.5151 32.0616 22.2787 31.8237C22.0423 31.5859 21.9091 31.2645 21.908 30.9291Z" fill="white"/>
</svg>
