<svg width="83" height="17" viewBox="0 0 83 17" fill="none" xmlns="http://www.w3.org/2000/svg">
<path d="M0.264221 16V1.45456H6.08808C7.6932 1.45456 8.89822 1.80494 9.70314 2.5057C10.5128 3.20172 10.9176 4.09424 10.9176 5.18326C10.9176 6.04026 10.6691 6.73392 10.1719 7.26422C9.67473 7.78979 9.04736 8.1378 8.28979 8.30826V8.4503C8.84377 8.47398 9.36223 8.63023 9.84519 8.91905C10.3329 9.20788 10.7282 9.61034 11.0313 10.1264C11.3343 10.6425 11.4858 11.2604 11.4858 11.9801C11.4858 12.7519 11.2941 13.4408 10.9105 14.0469C10.5317 14.653 9.97066 15.1312 9.22729 15.4816C8.48392 15.8272 7.56773 16 6.47871 16H0.264221ZM3.33951 13.4858H5.84661C6.70835 13.4858 7.33335 13.3201 7.72161 12.9887C8.1146 12.6572 8.3111 12.2192 8.3111 11.6747C8.3111 11.0734 8.09566 10.581 7.66479 10.1975C7.23865 9.81394 6.65627 9.62218 5.91763 9.62218H3.33951V13.4858ZM3.33951 7.54121H5.61933C6.24907 7.54121 6.77227 7.37786 7.18894 7.05115C7.6056 6.71971 7.81394 6.26754 7.81394 5.69462C7.81394 5.16905 7.62691 4.74528 7.25286 4.42331C6.88354 4.10134 6.35797 3.94036 5.67615 3.94036H3.33951V7.54121Z" fill="white"/>
<path d="M16.5409 16.206C15.4992 16.206 14.6351 15.9337 13.9485 15.3892C13.262 14.8447 12.9187 14.0327 12.9187 12.9531C12.9187 12.1387 13.1105 11.4995 13.494 11.0355C13.8775 10.5715 14.3794 10.233 14.9997 10.0199C15.6247 9.8021 16.297 9.66006 17.0167 9.59377C17.9637 9.49907 18.6408 9.39964 19.048 9.29547C19.4552 9.1913 19.6588 8.96403 19.6588 8.61365V8.57104C19.6588 8.12123 19.5167 7.77322 19.2326 7.52701C18.9533 7.28079 18.5555 7.15769 18.0394 7.15769C17.4949 7.15769 17.0617 7.27606 16.7397 7.5128C16.4177 7.74954 16.2047 8.05021 16.1005 8.41479L13.3022 8.18752C13.5106 7.1932 14.0266 6.40485 14.8505 5.82246C15.6791 5.24007 16.7468 4.94888 18.0536 4.94888C18.8633 4.94888 19.6209 5.07672 20.3264 5.3324C21.0319 5.58808 21.6 5.98818 22.0309 6.53269C22.4665 7.07246 22.6843 7.77559 22.6843 8.64206V16H19.815V14.4872H19.7298C19.4646 14.9939 19.0669 15.4082 18.5366 15.7301C18.011 16.0474 17.3458 16.206 16.5409 16.206ZM17.4073 14.1179C18.0702 14.1179 18.6147 13.9262 19.0409 13.5426C19.467 13.1544 19.6801 12.6738 19.6801 12.1009V10.9432C19.5617 11.0237 19.377 11.0947 19.1261 11.1563C18.8799 11.2178 18.6147 11.2723 18.3306 11.3196C18.0513 11.3622 17.8003 11.4001 17.5778 11.4333C17.0475 11.509 16.619 11.6582 16.2923 11.8807C15.9703 12.1032 15.8093 12.4276 15.8093 12.8537C15.8093 13.2704 15.9585 13.5852 16.2568 13.7983C16.5598 14.0114 16.9433 14.1179 17.4073 14.1179Z" fill="white"/>
<path d="M25.0316 16V5.09093H27.9649V6.99434H28.0785C28.2774 6.31725 28.6112 5.80589 29.0799 5.46025C29.5487 5.10987 30.0884 4.93468 30.6992 4.93468C31.0354 4.93468 31.3526 4.97019 31.6509 5.04121V7.72587C31.5089 7.67852 31.3124 7.64064 31.0615 7.61223C30.8105 7.57909 30.5809 7.56252 30.3725 7.56252C29.7049 7.56252 29.1509 7.77322 28.7106 8.19462C28.275 8.61129 28.0572 9.15579 28.0572 9.82814V16H25.0316Z" fill="white"/>
<path d="M39.5646 5.09093V7.36365H37.5121V12.6477C37.5121 13.0644 37.6068 13.3461 37.7962 13.4929C37.9856 13.6397 38.2318 13.7131 38.5348 13.7131C38.6769 13.7131 38.8189 13.7012 38.961 13.6776C39.103 13.6492 39.2119 13.6279 39.2877 13.6137L39.7635 15.8651C39.612 15.9124 39.3989 15.9669 39.1243 16.0284C38.8497 16.0947 38.5159 16.135 38.1229 16.1492C37.0244 16.1965 36.1413 15.9598 35.4737 15.4389C34.8109 14.9134 34.4818 14.1155 34.4865 13.0455V7.36365H32.995V5.09093H34.4865V2.47729H37.5121V5.09093H39.5646Z" fill="white"/>
<path d="M46.3899 16.2131C45.2725 16.2131 44.309 15.9858 43.4993 15.5313C42.6896 15.072 42.067 14.4233 41.6314 13.5852C41.1958 12.7424 40.978 11.7458 40.978 10.5952C40.978 9.47303 41.1958 8.48818 41.6314 7.64064C42.067 6.7931 42.6802 6.13259 43.4709 5.65911C44.2664 5.18562 45.1991 4.94888 46.2692 4.94888C47.2304 4.94888 48.0968 5.15248 48.8686 5.55968C49.6451 5.96687 50.2607 6.5824 50.7152 7.40627C51.1698 8.2254 51.397 9.25286 51.397 10.4887V11.3196H43.9681V11.3267C43.9681 12.1411 44.1906 12.7827 44.6357 13.2514C45.0807 13.7202 45.6821 13.9546 46.4396 13.9546C46.9463 13.9546 47.3842 13.848 47.7536 13.635C48.1229 13.4219 48.3833 13.107 48.5348 12.6904L51.3331 12.875C51.12 13.8883 50.5803 14.6979 49.7138 15.304C48.8473 15.9101 47.7394 16.2131 46.3899 16.2131ZM43.9681 9.44462H48.549C48.5443 8.79594 48.336 8.26091 47.924 7.83951C47.5121 7.4181 46.9771 7.2074 46.3189 7.2074C45.6466 7.2074 45.0949 7.42521 44.6641 7.86081C44.2332 8.29642 44.0012 8.82435 43.9681 9.44462Z" fill="white"/>
<path d="M53.3715 16V5.09093H56.3047V6.99434H56.4183C56.6172 6.31725 56.951 5.80589 57.4198 5.46025C57.8885 5.10987 58.4283 4.93468 59.0391 4.93468C59.3753 4.93468 59.6925 4.97019 59.9908 5.04121V7.72587C59.8487 7.67852 59.6522 7.64064 59.4013 7.61223C59.1503 7.57909 58.9207 7.56252 58.7124 7.56252C58.0448 7.56252 57.4908 7.77322 57.0504 8.19462C56.6148 8.61129 56.397 9.15579 56.397 9.82814V16H53.3715Z" fill="white"/>
<path d="M62.0735 16.1847C61.6048 16.1847 61.2023 16.019 60.8661 15.6875C60.53 15.3561 60.3642 14.9536 60.369 14.4801C60.3642 14.0161 60.53 13.6184 60.8661 13.2869C61.2023 12.9555 61.6048 12.7898 62.0735 12.7898C62.5281 12.7898 62.9234 12.9555 63.2596 13.2869C63.6005 13.6184 63.7733 14.0161 63.7781 14.4801C63.7733 14.9536 63.6005 15.3561 63.2596 15.6875C62.9234 16.019 62.5281 16.1847 62.0735 16.1847Z" fill="white"/>
<path d="M66.2621 16V5.09093H69.2877V16H66.2621ZM67.782 3.68468C67.3369 3.68468 66.9534 3.53553 66.6314 3.23723C66.3094 2.9342 66.1485 2.57199 66.1485 2.15058C66.1485 1.72918 66.3094 1.36933 66.6314 1.07104C66.9534 0.772744 67.3369 0.623596 67.782 0.623596C68.2318 0.623596 68.6177 0.772744 68.9396 1.07104C69.2616 1.36933 69.4226 1.72918 69.4226 2.15058C69.4226 2.57199 69.2616 2.9342 68.9396 3.23723C68.6177 3.53553 68.2318 3.68468 67.782 3.68468Z" fill="white"/>
<path d="M76.6403 16.2131C75.5371 16.2131 74.583 15.9787 73.7781 15.51C72.9779 15.0365 72.36 14.3783 71.9244 13.5355C71.4888 12.688 71.271 11.7055 71.271 10.5881C71.271 9.46119 71.4888 8.47634 71.9244 7.63354C72.36 6.786 72.9779 6.12786 73.7781 5.65911C74.583 5.18562 75.5371 4.94888 76.6403 4.94888C77.7435 4.94888 78.6952 5.18562 79.4954 5.65911C80.3003 6.12786 80.9206 6.786 81.3562 7.63354C81.7918 8.47634 82.0096 9.46119 82.0096 10.5881C82.0096 11.7055 81.7918 12.688 81.3562 13.5355C80.9206 14.3783 80.3003 15.0365 79.4954 15.51C78.6952 15.9787 77.7435 16.2131 76.6403 16.2131ZM76.6545 13.8693C77.4026 13.8693 77.9684 13.5568 78.3519 12.9318C78.7402 12.3068 78.9343 11.5185 78.9343 10.5668C78.9343 9.61507 78.7402 8.82672 78.3519 8.20172C77.9684 7.57199 77.4026 7.25712 76.6545 7.25712C75.8922 7.25712 75.3169 7.57199 74.9286 8.20172C74.5404 8.82672 74.3463 9.61507 74.3463 10.5668C74.3463 11.5185 74.5404 12.3068 74.9286 12.9318C75.3169 13.5568 75.8922 13.8693 76.6545 13.8693Z" fill="white"/>
</svg>
