<svg xmlns="http://www.w3.org/2000/svg" width="123.01" height="28" viewBox="0 0 123.01 28"><defs><style>.a{fill:#fff;}</style></defs><path class="a" d="M12.54,12.56H2.88a3.72,3.72,0,0,0,4,2.95,4.42,4.42,0,0,0,3.34-1.34L11.75,16A6.23,6.23,0,0,1,6.8,18C2.67,18,0,15.3,0,11.64A6.12,6.12,0,0,1,6.36,5.35a6,6,0,0,1,6.22,6.36C12.58,11.94,12.56,12.28,12.54,12.56ZM2.86,10.65h7a3.35,3.35,0,0,0-3.48-3A3.39,3.39,0,0,0,2.86,10.65Zm25.56,1A6,6,0,0,1,22.17,18a5.07,5.07,0,0,1-4.08-1.75v1.59H15.35V.69h2.88V7a5.12,5.12,0,0,1,3.94-1.63A6,6,0,0,1,28.42,11.64Zm-2.93,0a3.66,3.66,0,1,0-7.3,0,3.66,3.66,0,1,0,7.3,0Zm16-1.06v7.21H38.74v-1.5A4.36,4.36,0,0,1,34.87,18c-2.81,0-4.58-1.54-4.58-3.68s1.38-3.67,5.11-3.67h3.18v-.18c0-1.69-1-2.68-3.06-2.68A6.09,6.09,0,0,0,31.78,9L30.65,6.87a8.63,8.63,0,0,1,5.21-1.52C39.41,5.35,41.46,7,41.46,10.58Zm-2.88,3.36V12.51h-3c-2,0-2.49.74-2.49,1.64s.88,1.71,2.35,1.71A3.13,3.13,0,0,0,38.58,13.94ZM52.27,5.35V8.09A3.32,3.32,0,0,0,51.6,8C49.41,8,48,9.31,48,11.82v6H45.15V5.48h2.74v1.8C48.72,6,50.22,5.35,52.27,5.35Zm10,11.77a4.49,4.49,0,0,1-2.77.83c-2.7,0-4.24-1.43-4.24-4.15V7.88h-2V5.58h2V2.77H58.1V5.58h3.3v2.3H58.1v5.86c0,1.19.6,1.84,1.71,1.84a2.56,2.56,0,0,0,1.61-.51Zm13.89-4.56H66.47a3.71,3.71,0,0,0,4,2.95,4.42,4.42,0,0,0,3.35-1.34L75.34,16a6.24,6.24,0,0,1-5,2c-4.13,0-6.8-2.65-6.8-6.31A6.11,6.11,0,0,1,70,5.35a6,6,0,0,1,6.22,6.36C76.17,11.94,76.15,12.28,76.12,12.56Zm-9.68-1.91h7a3.35,3.35,0,0,0-3.48-3A3.41,3.41,0,0,0,66.44,10.65Zm19.62-5.3V8.09A3.32,3.32,0,0,0,85.39,8c-2.19,0-3.57,1.29-3.57,3.8v6H78.94V5.48h2.74v1.8C82.51,6,84,5.35,86.06,5.35ZM87.65,16a1.89,1.89,0,1,1,3.78,0,1.89,1.89,0,1,1-3.78,0Zm6.2-14.31A1.75,1.75,0,0,1,95.69,0a1.72,1.72,0,0,1,1.85,1.66,1.77,1.77,0,0,1-1.85,1.8A1.75,1.75,0,0,1,93.85,1.73Zm.39,3.75h2.88V17.79H94.24Zm5.65,6.16a6.19,6.19,0,0,1,6.54-6.29c3.83,0,6.57,2.6,6.57,6.29a6.56,6.56,0,0,1-13.11,0Zm10.21,0a3.66,3.66,0,1,0-7.31,0,3.66,3.66,0,1,0,7.31,0ZM58,24.71a1.84,1.84,0,0,1-1.89,1.93,1.64,1.64,0,0,1-1.46-.78v.74h-.49V21.26h.51v2.28a1.66,1.66,0,0,1,1.44-.75A1.84,1.84,0,0,1,58,24.71Zm-.51,0a1.42,1.42,0,1,0-1.41,1.48A1.4,1.4,0,0,0,57.5,24.71Zm4.41-.45V26.6h-.49V26a1.42,1.42,0,0,1-1.3.63c-.86,0-1.39-.45-1.39-1.1s.38-1.07,1.47-1.07h1.2v-.23a.94.94,0,0,0-1.07-1,2,2,0,0,0-1.26.45l-.23-.38a2.42,2.42,0,0,1,1.54-.51A1.35,1.35,0,0,1,61.91,24.26Zm-.51,1.21v-.62H60.21c-.73,0-1,.29-1,.67s.35.72,1,.72A1.22,1.22,0,0,0,61.4,25.47Zm3.81-2.68v.5h-.13a1.22,1.22,0,0,0-1.27,1.39V26.6H63.3V22.82h.49v.74A1.41,1.41,0,0,1,65.21,22.79Zm3,3.58a1.23,1.23,0,0,1-.8.27,1,1,0,0,1-1.11-1.1V23.25h-.68v-.43h.68V22h.51v.83h1.15v.43H66.78v2.26a.61.61,0,0,0,.66.69A.85.85,0,0,0,68,26Zm4.22-1.5H69.24a1.4,1.4,0,0,0,1.49,1.32,1.47,1.47,0,0,0,1.15-.5l.29.33a2,2,0,0,1-3.45-1.31,1.83,1.83,0,0,1,1.85-1.92,1.8,1.8,0,0,1,1.84,1.92S72.4,24.81,72.4,24.87Zm-3.16-.38h2.68a1.34,1.34,0,0,0-2.68,0Zm6.12-1.7v.5h-.12A1.23,1.23,0,0,0,74,24.67V26.6h-.51V22.82h.49v.74A1.42,1.42,0,0,1,75.36,22.79Zm9.11,1.62V26.6H84V24.46c0-.8-.4-1.21-1.08-1.21a1.22,1.22,0,0,0-1.27,1.37v2H81.1V24.46c0-.8-.41-1.21-1.1-1.21a1.21,1.21,0,0,0-1.26,1.37v2h-.51V22.82h.48v.69a1.53,1.53,0,0,1,1.39-.72,1.35,1.35,0,0,1,1.35.8,1.64,1.64,0,0,1,1.5-.8A1.42,1.42,0,0,1,84.47,24.41Zm4.25-.15V26.6h-.49V26a1.42,1.42,0,0,1-1.3.63c-.86,0-1.39-.45-1.39-1.1s.38-1.07,1.47-1.07h1.2v-.23a.94.94,0,0,0-1.07-1,2,2,0,0,0-1.26.45l-.23-.38a2.42,2.42,0,0,1,1.54-.51A1.35,1.35,0,0,1,88.72,24.26Zm-.51,1.21v-.62H87c-.73,0-1,.29-1,.67s.35.72,1,.72A1.22,1.22,0,0,0,88.21,25.47ZM92,22.79v.5h-.13a1.22,1.22,0,0,0-1.27,1.39V26.6h-.51V22.82h.49v.74A1.42,1.42,0,0,1,92,22.79ZM94.4,24.7l-.89.82V26.6H93V21.26h.52v3.62l2.26-2.06h.63l-1.62,1.55,1.77,2.23h-.63Zm6.22.17H97.45a1.4,1.4,0,0,0,1.49,1.32,1.51,1.51,0,0,0,1.16-.5l.29.33a2,2,0,0,1-3.45-1.31,1.82,1.82,0,0,1,1.85-1.92,1.8,1.8,0,0,1,1.83,1.92Zm-3.17-.38h2.68a1.34,1.34,0,0,0-2.68,0Zm6.21,1.88a1.21,1.21,0,0,1-.8.27,1,1,0,0,1-1.11-1.1V23.25h-.67v-.43h.67V22h.51v.83h1.16v.43h-1.16v2.26a.61.61,0,0,0,.66.69.83.83,0,0,0,.56-.19Zm4.77-1.66a1.84,1.84,0,0,1-1.89,1.93,1.66,1.66,0,0,1-1.44-.75V28h-.51V22.82h.49v.75a1.63,1.63,0,0,1,1.46-.78A1.84,1.84,0,0,1,108.43,24.71Zm-.51,0a1.42,1.42,0,1,0-1.42,1.48A1.4,1.4,0,0,0,107.92,24.71Zm1.55-3.45H110V26.6h-.51Zm4.79,3V26.6h-.49V26a1.41,1.41,0,0,1-1.3.63c-.86,0-1.38-.45-1.38-1.1s.37-1.07,1.46-1.07h1.2v-.23a.93.93,0,0,0-1.07-1,2,2,0,0,0-1.26.45l-.23-.38a2.42,2.42,0,0,1,1.54-.51A1.34,1.34,0,0,1,114.26,24.26Zm-.51,1.21v-.62h-1.19c-.73,0-1,.29-1,.67s.36.72,1,.72A1.21,1.21,0,0,0,113.75,25.47Zm1.52-.76a1.86,1.86,0,0,1,2-1.92,1.64,1.64,0,0,1,1.48.75l-.38.26a1.27,1.27,0,0,0-1.1-.57,1.48,1.48,0,0,0,0,3,1.29,1.29,0,0,0,1.1-.56l.38.26a1.66,1.66,0,0,1-1.48.75A1.87,1.87,0,0,1,115.27,24.71Zm7.73.16h-3.17a1.41,1.41,0,0,0,1.49,1.32,1.51,1.51,0,0,0,1.16-.5l.29.33a2,2,0,0,1-3.45-1.31,1.83,1.83,0,0,1,1.85-1.92A1.8,1.8,0,0,1,123,24.71S123,24.81,123,24.87Zm-3.17-.38h2.69a1.35,1.35,0,0,0-2.69,0Z"/></svg>