<svg xmlns="http://www.w3.org/2000/svg" width="354.37" height="80.66" viewBox="0 0 354.37 80.66"><defs><style>.a{fill:#2eb67b;}</style></defs><path class="a" d="M36.12,36.18H8.3c1,5.18,5.31,8.5,11.48,8.5a12.69,12.69,0,0,0,9.63-3.85l4.45,5.11c-3.19,3.79-8.17,5.78-14.27,5.78C7.7,51.72,0,44.08,0,33.53S7.77,15.4,18.32,15.4c10.36,0,17.93,7.24,17.93,18.33C36.25,34.39,36.18,35.39,36.12,36.18ZM8.23,30.67H28.35a9.65,9.65,0,0,0-10-8.63A9.8,9.8,0,0,0,8.23,30.67Zm73.64,2.86c0,11-7.64,18.19-18,18.19-4.84,0-9-1.66-11.75-5v4.58h-7.9V2h8.3V20.12A14.74,14.74,0,0,1,63.87,15.4C74.23,15.4,81.87,22.51,81.87,33.53Zm-8.44,0c0-6.77-4.51-11.09-10.49-11.09S52.39,26.76,52.39,33.53,57,44.61,62.94,44.61,73.43,40.3,73.43,33.53Zm46-3.06V51.25h-7.84V46.94c-2,3.05-5.84,4.78-11.15,4.78-8.1,0-13.21-4.45-13.21-10.62,0-5.91,4-10.56,14.73-10.56h9.17V30c0-4.85-2.92-7.7-8.83-7.7a17.57,17.57,0,0,0-10.76,3.52l-3.25-6c3.78-2.92,9.29-4.38,15-4.38C113.54,15.4,119.45,20.25,119.45,30.47Zm-8.3,9.7V36.05h-8.57c-5.64,0-7.17,2.12-7.17,4.71,0,3,2.53,4.92,6.77,4.92C106.23,45.68,109.75,43.82,111.15,40.17ZM150.58,15.4v7.9a10.71,10.71,0,0,0-1.92-.2c-6.31,0-10.29,3.72-10.29,11V51.25h-8.3V15.8H138V21C140.36,17.26,144.68,15.4,150.58,15.4Zm28.68,33.93a13.05,13.05,0,0,1-8,2.39c-7.77,0-12.22-4.12-12.22-11.95V22.71h-5.84V16.07h5.84V8h8.3v8.1h9.49v6.64h-9.49V39.57c0,3.45,1.73,5.31,4.91,5.31a7.43,7.43,0,0,0,4.65-1.46Zm40-13.15H191.48c1,5.18,5.31,8.5,11.49,8.5a12.69,12.69,0,0,0,9.62-3.85L217,45.94c-3.18,3.79-8.16,5.78-14.27,5.78-11.88,0-19.59-7.64-19.59-18.19S191,15.4,201.51,15.4c10.35,0,17.92,7.24,17.92,18.33C219.43,34.39,219.37,35.39,219.3,36.18Zm-27.88-5.51h20.11a9.65,9.65,0,0,0-10-8.63A9.79,9.79,0,0,0,191.42,30.67Zm56.5-15.27v7.9a10.82,10.82,0,0,0-1.93-.2c-6.3,0-10.29,3.72-10.29,11V51.25h-8.29V15.8h7.9V21C237.7,17.26,242,15.4,247.92,15.4Zm4.58,30.81a5.45,5.45,0,1,1,10.89,0,5.45,5.45,0,1,1-10.89,0ZM270.36,5a5.06,5.06,0,0,1,5.31-5C278.73,0,281,2.06,281,4.78a5.32,5.32,0,0,1-10.62.2Zm1.13,10.82h8.3V51.25h-8.3Zm16.27,17.73c0-10.63,8-18.13,18.85-18.13s18.92,7.5,18.92,18.13-7.9,18.19-18.92,18.19S287.76,44.15,287.76,33.53Zm29.41,0c0-6.77-4.52-11.09-10.56-11.09s-10.49,4.32-10.49,11.09,4.52,11.08,10.49,11.08S317.17,40.3,317.17,33.53ZM167.11,71.19a5.29,5.29,0,0,1-5.43,5.55,4.7,4.7,0,0,1-4.21-2.26v2.16h-1.41V61.25h1.47v6.56a4.77,4.77,0,0,1,4.15-2.16A5.28,5.28,0,0,1,167.11,71.19Zm-1.47,0a4.07,4.07,0,1,0-4.07,4.25A4,4,0,0,0,165.64,71.19Zm12.71-1.31v6.76h-1.41v-1.7a4.1,4.1,0,0,1-3.75,1.8c-2.47,0-4-1.28-4-3.17,0-1.68,1.08-3.09,4.21-3.09h3.47v-.66c0-1.87-1.06-2.88-3.09-2.88a5.54,5.54,0,0,0-3.63,1.28l-.67-1.1a7,7,0,0,1,4.44-1.47C176.75,65.65,178.35,67.06,178.35,69.88Zm-1.47,3.48V71.58h-3.43c-2.11,0-2.79.83-2.79,2s1,2,2.75,2A3.5,3.5,0,0,0,176.88,73.36Zm11-7.71v1.43l-.35,0c-2.28,0-3.67,1.45-3.67,4v5.56h-1.47V65.73h1.41v2.14C184.44,66.42,185.83,65.65,187.84,65.65ZM196.41,76a3.49,3.49,0,0,1-2.3.76,2.89,2.89,0,0,1-3.2-3.17V67H189V65.73h1.95V63.35h1.48v2.38h3.31V67h-3.31v6.51a1.75,1.75,0,0,0,1.88,2,2.45,2.45,0,0,0,1.62-.56Zm12.17-4.34h-9.13a4,4,0,0,0,4.3,3.8A4.33,4.33,0,0,0,207.09,74l.83.95A5.77,5.77,0,0,1,198,71.19a5.25,5.25,0,0,1,5.33-5.54,5.2,5.2,0,0,1,5.29,5.54C208.6,71.31,208.58,71.48,208.58,71.64Zm-9.13-1.1h7.74a3.88,3.88,0,0,0-7.74,0Zm17.65-4.89v1.43l-.35,0c-2.28,0-3.67,1.45-3.67,4v5.56h-1.47V65.73H213v2.14C213.7,66.42,215.09,65.65,217.1,65.65Zm26.25,4.67v6.32h-1.47V70.46c0-2.3-1.16-3.48-3.13-3.48-2.24,0-3.65,1.45-3.65,3.94v5.72h-1.47V70.46c0-2.3-1.16-3.48-3.15-3.48-2.22,0-3.65,1.45-3.65,3.94v5.72h-1.48V65.73h1.41v2a4.43,4.43,0,0,1,4-2.07,3.91,3.91,0,0,1,3.87,2.3,4.76,4.76,0,0,1,4.32-2.3C241.61,65.65,243.35,67.18,243.35,70.32Zm12.23-.44v6.76h-1.41v-1.7a4.08,4.08,0,0,1-3.75,1.8c-2.47,0-4-1.28-4-3.17,0-1.68,1.08-3.09,4.21-3.09h3.46v-.66c0-1.87-1.05-2.88-3.09-2.88a5.56,5.56,0,0,0-3.63,1.28l-.66-1.1a7,7,0,0,1,4.44-1.47C254,65.65,255.58,67.06,255.58,69.88Zm-1.47,3.48V71.58h-3.42c-2.11,0-2.8.83-2.8,2s1,2,2.76,2A3.49,3.49,0,0,0,254.11,73.36Zm11-7.71v1.43l-.35,0c-2.28,0-3.67,1.45-3.67,4v5.56h-1.47V65.73H261v2.14C261.68,66.42,263.07,65.65,265.08,65.65Zm6.86,5.52-2.57,2.36v3.11H267.9V61.25h1.47V71.68l6.51-6h1.83L273,70.19l5.11,6.45h-1.81Zm17.92.47h-9.12a4,4,0,0,0,4.29,3.8A4.31,4.31,0,0,0,288.37,74l.83.95a5.77,5.77,0,0,1-9.94-3.77,5.25,5.25,0,0,1,5.33-5.54,5.2,5.2,0,0,1,5.29,5.54C289.88,71.31,289.86,71.48,289.86,71.64Zm-9.12-1.1h7.73a3.87,3.87,0,0,0-7.73,0ZM298.63,76a3.49,3.49,0,0,1-2.3.76,2.89,2.89,0,0,1-3.2-3.17V67h-1.94V65.73h1.94V63.35h1.48v2.38h3.31V67h-3.31v6.51a1.75,1.75,0,0,0,1.88,2,2.44,2.44,0,0,0,1.62-.56Zm13.73-4.79a5.29,5.29,0,0,1-5.44,5.55,4.75,4.75,0,0,1-4.14-2.15v6.07H301.3V65.73h1.41v2.16a4.77,4.77,0,0,1,4.21-2.24A5.28,5.28,0,0,1,312.36,71.19Zm-1.48,0a4.06,4.06,0,1,0-4.06,4.25A4,4,0,0,0,310.88,71.19Zm4.48-9.94h1.48V76.64h-1.48Zm13.81,8.63v6.76h-1.41v-1.7a4.09,4.09,0,0,1-3.75,1.8c-2.47,0-4-1.28-4-3.17,0-1.68,1.08-3.09,4.21-3.09h3.46v-.66c0-1.87-1.06-2.88-3.09-2.88A5.54,5.54,0,0,0,321,68.22l-.66-1.1a6.93,6.93,0,0,1,4.44-1.47C327.58,65.65,329.17,67.06,329.17,69.88Zm-1.47,3.48V71.58h-3.42c-2.12,0-2.8.83-2.8,2s1,2,2.76,2A3.49,3.49,0,0,0,327.7,73.36Zm4.37-2.17a5.37,5.37,0,0,1,5.62-5.54A4.78,4.78,0,0,1,342,67.81l-1.1.74a3.71,3.71,0,0,0-3.18-1.61,4.25,4.25,0,0,0,0,8.5,3.7,3.7,0,0,0,3.18-1.6l1.1.75a4.81,4.81,0,0,1-4.28,2.15A5.39,5.39,0,0,1,332.07,71.19Zm22.28.45h-9.13a4,4,0,0,0,4.29,3.8A4.31,4.31,0,0,0,352.85,74l.83.95a5.77,5.77,0,0,1-9.93-3.77,5.25,5.25,0,0,1,5.33-5.54,5.2,5.2,0,0,1,5.29,5.54C354.37,71.31,354.35,71.48,354.35,71.64Zm-9.13-1.1H353a3.88,3.88,0,0,0-7.74,0Z"/></svg>