<svg xmlns="http://www.w3.org/2000/svg" width="163.65" height="26" viewBox="0 0 163.65 26"><defs><style>.a{fill:#fff;}</style></defs><path class="a" d="M18.16,18.19h-14c.5,2.6,2.67,4.27,5.78,4.27a6.4,6.4,0,0,0,4.84-1.93L17,23.1A9,9,0,0,1,9.85,26C3.87,26,0,22.16,0,16.85A8.86,8.86,0,0,1,9.21,7.74c5.21,0,9,3.64,9,9.21C18.22,17.29,18.19,17.79,18.16,18.19Zm-14-2.77H14.25a4.85,4.85,0,0,0-5-4.34A4.93,4.93,0,0,0,4.14,15.42Zm37,1.43c0,5.55-3.84,9.15-9,9.15a7.33,7.33,0,0,1-5.91-2.54v2.31h-4V1H26.4v9.11a7.43,7.43,0,0,1,5.71-2.37A8.66,8.66,0,0,1,41.16,16.85Zm-4.24,0c0-3.4-2.27-5.57-5.28-5.57a5.2,5.2,0,0,0-5.3,5.57,5.21,5.21,0,0,0,5.3,5.58C34.65,22.43,36.92,20.26,36.92,16.85Zm23.13-1.53V25.77H56.11V23.6c-1,1.53-2.94,2.4-5.61,2.4-4.07,0-6.64-2.24-6.64-5.34s2-5.31,7.41-5.31h4.61v-.26c0-2.44-1.47-3.88-4.44-3.88A8.82,8.82,0,0,0,46,13l-1.64-3a12.56,12.56,0,0,1,7.55-2.21C57.08,7.74,60.05,10.18,60.05,15.32Zm-4.17,4.87V18.12H51.57c-2.84,0-3.6,1.07-3.6,2.37C48,22,49.23,23,51.37,23A4.55,4.55,0,0,0,55.88,20.19ZM75.7,7.74v4a6,6,0,0,0-1-.1c-3.17,0-5.17,1.87-5.17,5.51v8.65H65.39V7.94h4v2.61C70.56,8.68,72.73,7.74,75.7,7.74ZM90.12,24.8a6.56,6.56,0,0,1-4,1.2C82.21,26,80,23.93,80,20V11.41H77V8.08H80V4h4.18V8.08h4.77v3.33H84.15v8.48c0,1.74.86,2.67,2.46,2.67A3.75,3.75,0,0,0,89,21.83Zm20.13-6.61h-14c.5,2.6,2.67,4.27,5.78,4.27a6.4,6.4,0,0,0,4.84-1.93l2.23,2.57a9,9,0,0,1-7.17,2.9c-6,0-9.85-3.84-9.85-9.15a8.87,8.87,0,0,1,9.21-9.11c5.21,0,9,3.64,9,9.21C110.31,17.29,110.28,17.79,110.25,18.19Zm-14-2.77h10.11a4.85,4.85,0,0,0-5-4.34A4.93,4.93,0,0,0,96.23,15.42Zm28.4-7.68v4a5.8,5.8,0,0,0-1-.1c-3.17,0-5.18,1.87-5.18,5.51v8.65h-4.17V7.94h4v2.61C119.49,8.68,121.66,7.74,124.63,7.74Zm2.31,15.49a2.74,2.74,0,1,1,5.47,0,2.74,2.74,0,1,1-5.47,0Zm9-20.73A2.54,2.54,0,0,1,138.59,0a2.48,2.48,0,0,1,2.67,2.4,2.67,2.67,0,0,1-5.34.1Zm.56,5.44h4.18V25.77h-4.18Zm8.18,8.91c0-5.34,4-9.11,9.48-9.11s9.51,3.77,9.51,9.11-4,9.15-9.51,9.15S144.66,22.19,144.66,16.85Zm14.79,0a5.19,5.19,0,0,0-5.31-5.57c-3,0-5.27,2.17-5.27,5.57s2.27,5.58,5.27,5.58S159.45,20.26,159.45,16.85Z"/></svg>