<svg width="216" height="157" viewBox="0 0 216 157" fill="none" xmlns="http://www.w3.org/2000/svg">
<g clip-path="url(#clip0)">
<path d="M158.478 0.0895996H0.0678711V100.932H158.478V0.0895996Z" fill="#E6E6E6"/>
<path d="M153.948 12.7374H4.59729V94.9657H153.948V12.7374Z" fill="white"/>
<path d="M158.41 0H0V6.68934H158.41V0Z" fill="#2EB67D"/>
<path d="M5.00111 4.65978C5.68999 4.65978 6.24844 4.10469 6.24844 3.41996C6.24844 2.73523 5.68999 2.18015 5.00111 2.18015C4.31223 2.18015 3.75378 2.73523 3.75378 3.41996C3.75378 4.10469 4.31223 4.65978 5.00111 4.65978Z" fill="white"/>
<path d="M9.73561 4.65978C10.4245 4.65978 10.9829 4.10469 10.9829 3.41996C10.9829 2.73523 10.4245 2.18015 9.73561 2.18015C9.04673 2.18015 8.48828 2.73523 8.48828 3.41996C8.48828 4.10469 9.04673 4.65978 9.73561 4.65978Z" fill="white"/>
<path d="M14.4701 4.65978C15.159 4.65978 15.7174 4.10469 15.7174 3.41996C15.7174 2.73523 15.159 2.18015 14.4701 2.18015C13.7812 2.18015 13.2228 2.73523 13.2228 3.41996C13.2228 4.10469 13.7812 4.65978 14.4701 4.65978Z" fill="white"/>
<path d="M52.1841 19.5006H22.9733V51.001H52.1841V19.5006Z" fill="#E6E6E6"/>
<path d="M93.8779 19.5006H64.6671V51.001H93.8779V19.5006Z" fill="#E6E6E6"/>
<path d="M135.572 19.5006H106.361V51.001H135.572V19.5006Z" fill="#E6E6E6"/>
<path d="M52.1841 56.7028H22.9733V88.2031H52.1841V56.7028Z" fill="#E6E6E6"/>
<path d="M93.8779 56.7028H64.6671V88.2031H93.8779V56.7028Z" fill="#E6E6E6"/>
<path d="M135.572 56.7028H106.361V88.2031H135.572V56.7028Z" fill="#E6E6E6"/>
<path d="M71.7274 64.7985L77.0645 62.7012L77.6851 73.1879C77.6851 73.1879 78.8022 76.3955 78.4298 77.6293C78.4298 77.6293 78.6781 79.7266 78.0575 79.85C77.4369 79.9733 75.6992 80.2201 75.5751 80.0967C75.4509 79.9733 75.4509 79.6032 75.4509 79.6032C75.4509 79.6032 74.2098 80.4668 74.0856 81.4538C74.0856 81.4538 68.8726 83.0576 68.7485 81.5772C68.6244 80.0967 71.355 78.863 71.355 78.863L73.465 75.6553L71.7274 64.7985Z" fill="white"/>
<path d="M83.0223 64.7985L88.3594 62.7012L88.98 73.1879C88.98 73.1879 90.0971 76.3955 89.7247 77.6293C89.7247 77.6293 89.973 79.7266 89.3524 79.85C88.7318 79.9733 86.9941 80.2201 86.87 80.0967C86.7459 79.9733 86.7459 79.6032 86.7459 79.6032C86.7459 79.6032 85.5047 80.4668 85.3806 81.4538C85.3806 81.4538 80.1675 83.0576 80.0434 81.5772C79.9193 80.0967 82.6499 78.863 82.6499 78.863L84.76 75.6553L83.0223 64.7985Z" fill="white"/>
<path d="M31.062 44.6784L32.4961 45.2616L39.3408 36.3199L41.492 46.8167L42.9261 46.5575C43.8461 37.5079 44.5962 28.2774 43.6757 23.9117L38.363 23.6849L35.9511 31.3307L34.7777 36.5143L31.062 44.6784Z" fill="white"/>
<path d="M118.104 23.8392C118.104 23.8392 116.147 26.5438 116.242 27.6352C116.338 28.7265 117.579 46.5201 117.579 46.5201L120.491 46.6624L119.631 33.8511L120.347 30.3873L122.114 46.5201L125.694 46.615L122.496 25.6897L121.875 23.8392L118.104 23.8392Z" fill="white"/>
<path d="M129.166 67.4099C128.646 66.7901 127.753 66.455 126.895 66.2738C126.921 66.1963 124.286 65.6554 124.242 65.7669L123.249 64.9807L120.199 66.5553L118.484 65.3953L117.688 65.6762C117.72 65.5366 115.216 65.9677 115.216 65.9677C114.737 65.9848 114.126 66.0146 113.442 66.0669C111.047 66.25 110.863 72.416 110.863 72.416C111.965 71.9679 113.14 71.7234 114.33 71.6944L114.978 79.0704C118.308 78.7866 121.8 79.1169 125.419 79.9252L127.117 74.1272L131.07 72.5992C131.07 72.5992 130.394 68.8751 129.166 67.4099Z" fill="#3F3D56"/>
<path d="M44.3348 63.8981C43.9066 63.3874 43.1706 63.1113 42.4637 62.962C42.4849 62.8982 40.314 62.4525 40.2777 62.5443L39.4595 61.8965L36.9461 63.1939L35.5336 62.2382L34.8774 62.4696C34.9042 62.3546 32.8406 62.7098 32.8406 62.7098C32.4464 62.7239 31.9429 62.7484 31.3793 62.7915C29.4056 62.9424 29.2538 68.023 29.2538 68.023C30.1619 67.6537 31.1301 67.4522 32.111 67.4284L32.6445 82.305C35.3882 82.071 38.2658 82.3433 41.2477 83.0092L42.6463 69.4329L45.9036 68.1739C45.9036 68.1739 45.3469 65.1054 44.3348 63.8981Z" fill="white"/>
<path d="M150.616 149.615L130.856 153.636L130.405 153.59L113.041 151.848V129.975L134.298 126.402L149.718 128.19L149.724 128.287V128.332L150.616 149.615Z" fill="#E6E6E6"/>
<path opacity="0.1" d="M150.616 149.615L130.856 153.636L130.405 153.59V131.166L149.724 128.287L150.616 149.615Z" fill="black"/>
<path opacity="0.05" d="M149.724 128.332L149.718 128.338L130.405 131.166L113.041 129.975L134.298 126.402L149.718 128.19L149.724 128.287V128.332Z" fill="black"/>
<path d="M127.445 138.388L115.431 137.608L115.063 143.214L127.077 143.993L127.445 138.388Z" fill="white"/>
<path d="M124.506 140.033L118.131 139.619L118.003 141.569L124.378 141.982L124.506 140.033Z" fill="#3E3E3E"/>
<path d="M177.397 149.615L157.637 153.636L157.187 153.59L139.822 151.848V129.975L161.079 126.402L176.499 128.19L176.505 128.287V128.332L177.397 149.615Z" fill="#CFCFCF"/>
<path opacity="0.05" d="M176.505 128.332L176.499 128.338L157.187 131.166L139.822 129.975L161.079 126.402L176.499 128.19L176.505 128.287V128.332Z" fill="black"/>
<path d="M154.227 138.388L142.213 137.608L141.845 143.214L153.859 143.993L154.227 138.388Z" fill="white"/>
<path d="M151.287 140.033L144.912 139.619L144.784 141.569L151.159 141.982L151.287 140.033Z" fill="#3E3E3E"/>
<path d="M191.696 40.4485C191.696 40.4485 195.182 49.4008 188.79 49.4008C182.399 49.4008 198.669 58.3532 205.06 53.155C211.452 47.9569 207.675 47.6681 207.675 47.6681C207.675 47.6681 199.25 48.5345 199.54 41.0261L191.696 40.4485Z" fill="#FFB8B8"/>
<path d="M196.238 43.1432C201.912 43.1432 206.513 38.5705 206.513 32.9299C206.513 27.2892 201.912 22.7166 196.238 22.7166C190.563 22.7166 185.962 27.2892 185.962 32.9299C185.962 38.5705 190.563 43.1432 196.238 43.1432Z" fill="#2F2E41"/>
<path d="M189.953 77.7018L178.912 106.003C178.912 106.003 173.392 114.666 175.426 123.33C177.46 131.993 183.048 147.761 183.048 147.761C183.048 147.761 187.27 148.829 186.98 145.075C186.689 141.32 187.161 123.119 182.803 118.21L200.412 98.2055L200.993 121.019C200.993 121.019 199.831 131.416 200.121 136.036C200.412 140.657 200.993 148.454 200.993 148.454L204.479 147.877C204.479 147.877 209.183 126.606 208.601 119.675C208.601 119.675 219.396 85.9991 208.356 77.9132L189.953 77.7018Z" fill="#2F2E41"/>
<path d="M184.262 147.714C184.262 147.714 182.841 147.354 182.677 148.65C182.513 149.946 179.523 155.709 182.645 155.998C185.766 156.286 186.846 153.383 187.369 151.342C187.892 149.301 188.09 149.184 188.527 148.793C188.963 148.402 190.002 146.26 188.698 146.097C187.395 145.934 186.726 144.66 186.726 144.66C186.726 144.66 186.315 148.234 184.262 147.714Z" fill="#2F2E41"/>
<path d="M203.269 146.712C203.269 146.712 200.633 146.337 200.821 147.273C201.009 148.209 200.444 152.14 200.821 152.514C201.197 152.889 201.951 153.637 201.951 154.199C201.951 154.76 202.139 156.632 205.34 156.071C208.542 155.509 207.788 152.701 207.6 152.327C207.412 151.953 205.152 150.081 205.34 148.958C205.529 147.835 204.399 145.963 203.269 146.712Z" fill="#2F2E41"/>
<path d="M196.364 44.2635C200.295 44.2635 203.481 41.0963 203.481 37.1894C203.481 33.2824 200.295 30.1152 196.364 30.1152C192.434 30.1152 189.247 33.2824 189.247 37.1894C189.247 41.0963 192.434 44.2635 196.364 44.2635Z" fill="#FFB8B8"/>
<path d="M203.172 46.9461C203.172 46.9461 205.654 51.8279 198.172 51.9663C195.872 52.0088 193.136 50.3426 192.007 48.3503C191.342 47.1766 191.174 48.7977 190.098 48.6789C188.061 48.4539 185.884 49.2939 183.937 50.3233C183.685 50.456 183.488 50.6714 183.378 50.9327C183.269 51.194 183.254 51.485 183.337 51.7559C184.814 56.6266 189.031 80.0566 189.682 81.3323C191.345 84.5899 209.339 79.1343 209.339 79.1343C209.585 70.2705 206.348 57.8695 212.041 48.8506C210.789 47.9153 209.348 47.2607 207.817 46.9319C206.286 46.6032 204.701 46.608 203.172 46.9461Z" fill="#2EB67D"/>
<path d="M203.02 31.7495L197.805 29.0347L190.604 30.1452L189.115 36.6858L192.823 36.5439L193.859 34.1409V36.5043L195.571 36.4388L196.564 32.6133L197.185 36.6858L203.268 36.5622L203.02 31.7495Z" fill="#2F2E41"/>
<path d="M196.778 25.4042C199.068 25.4042 200.924 23.5591 200.924 21.2831C200.924 19.007 199.068 17.1619 196.778 17.1619C194.488 17.1619 192.632 19.007 192.632 21.2831C192.632 23.5591 194.488 25.4042 196.778 25.4042Z" fill="#2F2E41"/>
<path d="M191.551 20.0288C191.551 19.0445 191.905 18.0926 192.55 17.3454C193.195 16.5983 194.087 16.1051 195.066 15.9551C194.475 15.8652 193.872 15.9033 193.298 16.0668C192.723 16.2302 192.191 16.5152 191.738 16.9021C191.284 17.289 190.921 17.7687 190.671 18.3083C190.422 18.848 190.292 19.4349 190.292 20.0288C190.292 20.6227 190.422 21.2096 190.671 21.7493C190.921 22.289 191.284 22.7687 191.738 23.1556C192.191 23.5424 192.723 23.8274 193.298 23.9908C193.872 24.1543 194.475 24.1924 195.066 24.1025C194.087 23.9526 193.195 23.4594 192.55 22.7122C191.905 21.965 191.551 21.0132 191.551 20.0288Z" fill="#2F2E41"/>
<path d="M215.481 118.111L195.721 122.131L195.271 122.085L177.906 120.343V98.4698L199.163 94.8976L214.583 96.685L214.589 96.782V96.8276L215.481 118.111Z" fill="#E6E6E6"/>
<path opacity="0.1" d="M215.481 118.111L195.721 122.131L195.271 122.085V99.6616L214.589 96.782L215.481 118.111Z" fill="black"/>
<path opacity="0.05" d="M214.589 96.8276L214.583 96.8333L195.271 99.6616L177.906 98.4698L199.163 94.8976L214.583 96.685L214.589 96.782V96.8276Z" fill="black"/>
<path d="M192.311 106.883L180.297 106.104L179.929 111.709L191.943 112.488L192.311 106.883Z" fill="white"/>
<path d="M189.371 108.528L182.996 108.114L182.868 110.064L189.243 110.477L189.371 108.528Z" fill="#3E3E3E"/>
<path d="M184.7 92.8522C184.7 92.8522 177.436 98.6279 180.632 100.649C183.828 102.671 187.605 92.8522 187.605 92.8522H184.7Z" fill="#FFB8B8"/>
<path d="M185.014 50.0718C184.638 49.6503 179.887 52.0587 180.591 55.2005L180.923 76.9691C180.923 76.9691 179.18 94.8738 183.538 94.8738C187.896 94.8738 187.381 95.4759 187.962 94.0319C188.543 92.588 188.699 80.3554 188.699 80.3554L185.014 50.0718Z" fill="#2EB67D"/>
<path d="M207.485 90.8985C207.485 90.8985 211.262 100.717 214.457 98.6957C217.653 96.6742 210.39 90.8985 210.39 90.8985H207.485Z" fill="#FFB8B8"/>
<path d="M208.356 78.6459C208.356 78.6459 206.546 90.6342 207.127 92.0781C207.708 93.5221 207.194 92.92 211.552 92.92C215.91 92.92 214.167 75.0153 214.167 75.0153L214.498 53.2467C215.203 50.1049 210.452 47.6965 210.076 48.118L205.899 62.2829L208.356 78.6459Z" fill="#2EB67D"/>
<path d="M87.9862 43.2683C87.7274 43.5111 87.0473 43.3643 85.946 42.8278C84.8446 42.2912 83.6049 41.5599 82.2267 40.6337C80.8485 39.7075 79.4553 38.7304 78.047 37.7026C76.6388 36.6747 75.4562 35.7881 74.4993 35.0426C73.5424 34.2971 72.9737 33.8453 72.7931 33.6872C72.5283 33.4161 72.4441 33.0405 72.5403 32.5605C72.6366 32.0804 72.8894 31.5693 73.2986 31.0272C72.2755 30.5866 71.0478 30.3664 69.6155 30.3664V29.2821C70.7469 29.2821 71.77 29.4232 72.6848 29.7056L69.6155 26.8254L70.4641 26.0291L73.5334 28.9263C73.2324 28.0565 73.082 27.0908 73.082 26.0291H74.2375C74.2375 27.3732 74.4722 28.5253 74.9416 29.4854C75.5194 29.1013 76.064 28.8641 76.5756 28.7738C77.0871 28.6834 77.4873 28.7625 77.7762 29.011C77.9447 29.1804 78.4262 29.7141 79.2206 30.6121C80.015 31.51 80.9599 32.6198 82.0552 33.9413C83.1505 35.2628 84.1917 36.5702 85.1786 37.8635C86.1656 39.1568 86.945 40.3202 87.5167 41.3537C88.0885 42.3872 88.2449 43.0254 87.9862 43.2683Z" fill="black"/>
</g>
<defs>
<clipPath id="clip0">
<rect width="215.481" height="156.174" fill="white"/>
</clipPath>
</defs>
</svg>
